<svg id="Layer_1" data-name="Layer 1" xmlns="http://www.w3.org/2000/svg" viewBox="0 0 490.4 496.23"><defs><style>.cls-1{fill:#00aced;}.cls-2{fill:#fff;}.cls-3{fill:#fafbfc;}.cls-4{fill:#eb212b;}.cls-5{fill:#fcfefe;}</style></defs><title>Logo_with_circle</title><path class="cls-1" d="M518.58,380.72c-25.49,82.11-144.5,184.45-281.67,147.69C155.3,506.54-3.93,429.25,56,203.8,93.75,61.6,266.1,18.44,384.47,49.33,527.27,86.6,555.27,262.54,518.58,380.72Z" transform="translate(-42.8 -39.88)"/><path class="cls-2" d="M325.74,316.57l0,11a42.42,42.42,0,0,0,7-.13,42.16,42.16,0,0,1,6.26-.16l.21,0,0,.21a12.11,12.11,0,0,1-6.34,9.59c-4.51,2.4-10.81,2.26-16.05-.35-4-2-6.89-5.91-8.11-11-1.49-6.27.27-13,4.49-17.23a11.23,11.23,0,0,1,3.51-2.46c.43-.19,10.65-4.48,16.85,2.37l10.62-12A14.22,14.22,0,0,0,339.6,293l-.3-.17a19.74,19.74,0,0,0-4-1.65,36.78,36.78,0,0,0-12.74-1.69,32.87,32.87,0,0,0-6.67,1c-5.3,1.36-12.44,4.3-16.39,10.6-7,11.19-7.7,25-1.8,36.08,5.08,9.54,13.91,15.2,24.23,15.54,9.77.32,17.34-2.36,22.5-8,5.9-6.41,8.28-16.28,6.89-28.55C344.38,316.08,327.75,316.52,325.74,316.57Z" transform="translate(-42.8 -39.88)"/><path class="cls-2" d="M451.45,238.45c-6.06-6.46-16.67-2.47-17.88-1.9a13.1,13.1,0,0,0-3.63,2.78c-4.11,4.39-5.09,11.81-3.45,17.74,1.22,4.39,4,9,8.46,11,8.49,3.85,21.57,1.35,22-10.42-3.61-.21-9.55.59-13.3.24l-.37-11.34s18.5-.68,25.79-.83c3.25,21.19-5.05,37.75-28.1,37.83-23.53.08-37.63-27.89-24.38-50.88,3.37-5.85,9.74-9.38,16-11.24a35.54,35.54,0,0,1,19.47,0,20.17,20.17,0,0,1,4.09,1.51c1.81,1,3.78,1.94,5.05,3.59Z" transform="translate(-42.8 -39.88)"/><path class="cls-2" d="M227.25,289.26c-.51,10.08-.58,46.26-.9,48.23-.24,1.53-.08,9.8-9.8,15.7-3.59,2.18-10.06,3.4-14.32,3-13.19-1.36-17.09-11.77-17.59-14-1.37-6.3-1.54-12.78-1.71-19.21-.23-8.63,0-33.09,0-33.09,5.27-.12,10.46-.25,15.69-.47l0,2.34c.17,12.66-.29,30.64-.12,43.29a10.67,10.67,0,0,0,.34,3.07c.47,1.55,2,4,6,4.13,2.61.07,5.55-2.44,6.16-4a14.86,14.86,0,0,0,.71-5c.3-12.42.48-31.33.78-43.75l.2,0c2.49-.11,5.24.08,7.75,0S227.25,289.26,227.25,289.26Z" transform="translate(-42.8 -39.88)"/><path class="cls-2" d="M274.55,321.59c.82-13.91.47-32.93.47-32.93s10.6.28,13.29.29c-.57,16.37-1,57.31-1,62-.34-.07-8.88.15-9,0-4.43-5.94-23.75-33.42-28.77-38.76-.07-.08-.22.16-.3.1s-.12,35.43-.2,38.41c-5.91.3-8.84.75-13.2.3,0-2.69.16-11.83.08-17.3,0-1.87-.07-3.72-.08-5.59-.14-11.18,0-28.15.4-39.31H249C249.06,288.81,266.84,312.67,274.55,321.59Z" transform="translate(-42.8 -39.88)"/><path class="cls-2" d="M136.44,313.33v0s0,.62,0,.61q10.91.51,21.84.32l.06-1.53c-.07-7.62.12-15.26.37-22.88l14.87.11-.47,62s-10.77.36-14.82.16c.16-8.29.14-24.51.07-24.72l-21.82.29c.09,7.81.19,17.12.09,24.28a121.38,121.38,0,0,1-14.29,0c-.23-21.33-.93-40.84.17-62.15,4.78,0,9.29.25,14.07.29C136.6,290.18,136.41,305.58,136.44,313.33Z" transform="translate(-42.8 -39.88)"/><path class="cls-2" d="M243.93,260.75l-14.54.9c-1.29,3.72-5.06,18.07-5.06,18.07-4.39-.05-9.3.12-13.71.05,1.37-6.2,16-54.59,18.63-61.89,6.87-.09,10,.2,17.37,0,0,0,10.28,39.51,12.48,46.81.9,3,3.79,15.09,3.79,15.09H249.37S245.26,265,243.93,260.75Zm-2-9.27c-1.2-6.07-2.74-13-4.47-19l-1,.22c-1.27,6-3.56,13.73-5,19.86Z" transform="translate(-42.8 -39.88)"/><path class="cls-2" d="M370.9,244l-.33.11c.08,11.32.17,24.36.25,35.68v.33c-2.11,0-4,.08-6.1.08l-7.86-.1s-.48-41.35.23-59.38h1.61c2.32-.15,10.14,0,10.14,0,3,3.35,8.17,9.48,11,13,3.91,4.88,8.24,11.91,12.84,17.79-.14-8.1-.22-22.45-.37-30.55v-.4c4.07,0,9.21.07,13.29.23l1.83,59.45s-8.25.19-10.33,0C397.05,280.17,372,244.73,370.9,244Z" transform="translate(-42.8 -39.88)"/><path class="cls-2" d="M347.88,277.28c0,.52.12,1.41-.27,1.42l-14.46,0c0-17.45.1-42.21-.07-59.64,5-.3,9.23,0,14.25.09C346.69,228.39,347.51,269.47,347.88,277.28Z" transform="translate(-42.8 -39.88)"/><path class="cls-2" d="M291.71,267.57c-2.85-5.65-8.58-19-9.74-21.47-.12-.25-.31,0-.33,0,0,.31-.08,31.69.39,35.57l-13.37-.11c.11-3.2,1.11-58.43,1.11-58.43,4.84.13,11.44,0,16.91,0,.1,0,2.85,7.16,3.45,8.71,1.55,3.94,6,16.49,6,16.49h.6s7.33-19,10.27-25c5.73-.41,16.42-.07,16.42-.07s1.9,57,2.12,58.43c-2.58.12-13.41,0-13.41,0,.26-11.45,0-36.89-.16-36.68,0,0-2.22,5.26-3.16,7.21-2.51,5.23-5.15,10.17-7.66,15.41Z" transform="translate(-42.8 -39.88)"/><path class="cls-2" d="M195.29,278c-6.12,2.86-10.41,4.28-18,3.48-12.91-1.36-19.2-11.26-22.7-20.52-4-10.68,1.37-21.75,2.24-23.75A25,25,0,0,1,178,222.11c7.16-.56,14.55,1,20.23,5.32s9.79,8.64,11.69,17.34C210.27,246.36,213.29,269.6,195.29,278ZM197,255.89c2.14-9-3.94-22-16.42-20.3-14.41,1.95-13.68,13.84-13.62,17.94.29,8,7.45,14.74,13.7,14.74A16.79,16.79,0,0,0,197,255.89Z" transform="translate(-42.8 -39.88)"/><path class="cls-2" d="M372.9,301.82l-.14,10.68s10.62.07,15.87.33c.15,3.92.22,7.63.14,11.72-5.76-.19-10.25-.12-15.78-.1-.17,2.78-.18,9.48-.34,12.54,8.5.12,13.27.06,22.85.39,0,4.7,0,8.11-.25,12.75-16.23,0-37.66-.37-37.66-.37.17-15,.33-36.14.5-51.13,0-2.7,0-8-.06-10.72l37.76.06s-.2,13.65-.36,13.71S372.9,301.82,372.9,301.82Z" transform="translate(-42.8 -39.88)"/><path class="cls-2" d="M417.73,318.09c3,.17,5.9.28,8.89.33,2.92-.11,8.2-1.65,8.6-7.7.46-7-3.7-8.41-7.18-8.76l-9.76-.17C418.27,302.49,417.73,318.09,417.73,318.09Zm29.58,35.66c-.75.08-15.41-.51-15.41-.51-2.56-6.14-7.74-21.35-7.74-21.35a16.23,16.23,0,0,0-2.6-.16c-1.55,0-3.08,0-4.63,0-.48,6.43-.52,15.11-.51,21.21-2.85-.37-10.15-.14-13.33-.38,0,0,.07-3.92.09-4.54.27-19.39,1.14-38.09,1.42-57.47v-1.09q12.44-.06,24.88.3c1.71,0,14.11,2.23,18.33,12.07a23,23,0,0,1-2,21.08c-1.56,2.39-5.36,6.16-8.27,6.64C437.5,329.53,447.23,353.49,447.31,353.75Z" transform="translate(-42.8 -39.88)"/><path class="cls-2" d="M120.25,244.62c2.91.09,5.57.08,8.32-.05a7.84,7.84,0,0,0,6.71-3.6c1.2-2.05.83-5.27-.33-7.36-2.55-3.94-9.54-3.88-14.62-3.56C120.32,233.42,120.25,244.62,120.25,244.62Zm28.6,35.32-14.16-.2c-2.4-5.67-8.44-22.51-8.44-22.51a15,15,0,0,0-2.41-.14h-4.29c-.41,6,0,22.57,0,22.57l-12.59-.22s0-.16,0-.73c.14-18,1-61,1-61,7.68-.08,15.36.22,23,.43s17.58,4.7,18.31,16.41c.93,15-8,19.94-10.66,20.39C138.6,255,145.88,273.28,148.86,279.94Z" transform="translate(-42.8 -39.88)"/><path class="cls-3" d="M226,410.85a221.93,221.93,0,0,1-70.14-26c1-4.72,3.41-9.25,4.69-13.89,1.32-4.79,2.13-10.19,8.74-10.3,7.67-.13,15.21,4.18,17.22,10.4,2.79,8.64,1.33,14.71,3.84,24.75,3.79-8.29,6.76-11.08,10.07-18.24,1.46-3.15,3-6.25,5.65-8.51,6.38-5.51,13.53-3.08,15,5.36C223.37,386.82,225.41,398.2,226,410.85Z" transform="translate(-42.8 -39.88)"/><path class="cls-3" d="M324.88,412.19c-17.15,4.88-37.33,3.12-54.93,3.4,3.38-9.54,7.61-31,11.1-40.46a20.66,20.66,0,0,1,12.12-12.56c10.2-4.06,15.19-2,20.17,8.32C317.51,379.51,322.25,402.92,324.88,412.19Z" transform="translate(-42.8 -39.88)"/><path class="cls-3" d="M269.4,415.34c-13.7.78-28.39-.25-41.69-3.9,2.86-9.75,6.84-22.74,9.79-32.46a15.82,15.82,0,0,1,6.13-8.88c13.36-9.3,20-6.49,22.84,10.08C268.31,390.79,269.15,404.56,269.4,415.34Z" transform="translate(-42.8 -39.88)"/><path class="cls-3" d="M425.38,394.08c-17.12,2.2-33.5,3.64-50.62,5.84,2.48-27.58,20.13-40.68,37.34-37.17,4,.81,6.91,10,8.58,13.42C423.12,381.22,424.43,388.45,425.38,394.08Z" transform="translate(-42.8 -39.88)"/><path class="cls-3" d="M369.26,402c-15.46,2.86-27.64,6.67-43.1,9.53-.68-10.7-.22-19.34,3-29.41,3.53-11.06,14.37-17,22.9-17.25,12.1,2.62,12,11.81,14.49,20.53C367.25,391.28,369.05,396,369.26,402Z" transform="translate(-42.8 -39.88)"/><path class="cls-4" d="M323.35,406.52l5-.59,35.49-6.57,6.57-1.32,51.36-6.61c5.8.39,11.69.26,17.39,1.28,9.31,1.67,10.39,4.92,4.69,12.69-6.13,8.37-13.73,15.14-21.63,21.48-27.51,22.06-56.93,40.45-90.44,50-18.56,5.3-37.56,4.64-56.64,2.44C245.84,476,217.78,469,192,453.14a233.77,233.77,0,0,1-52.25-44c-6.87-7.72-8.14-14.72-4-21.45s12.12-9,20.92-5.83a214.57,214.57,0,0,0,68.86,25.84l3.28.54a125.1,125.1,0,0,0,40.52,4.09l1.63.1C288.63,412.11,306.2,411.41,323.35,406.52Z" transform="translate(-42.8 -39.88)"/><path class="cls-3" d="M348.68,159.08c15.46,2.55,32.91,8.67,47.78,13.71-6.17,8.65-11.34,21.73-19.44,28.39-9.87,8.1-20.7,4-24.72-8.7C349.33,183.11,348.68,168.9,348.68,159.08Z" transform="translate(-42.8 -39.88)"/><path class="cls-3" d="M398.38,177.76l32.55,13.69c-4.54,7.62-8.93,15.4-15.3,21.5-5.87,5.62-9.43,4.75-12.28-3.14C399.64,199.52,398.73,188.67,398.38,177.76Z" transform="translate(-42.8 -39.88)"/><path class="cls-5" d="M225.33,151c14.69-1.23,30.44.87,45,3.27-2.16,12.76-5.36,30.94-7.68,43.66-1.52,8.34-13.5,13.37-22.71,9.33-8.15-3.57-13.63-9.91-14.08-19.71C225.38,177.52,225.48,161.08,225.33,151Z" transform="translate(-42.8 -39.88)"/><path class="cls-5" d="M186.08,156.88c10.58-5.06,21.36-7.14,33-8.07.17,15.66.23,42.32.36,58,.08,8.67-3.87,13.16-12,13.76-7.09.53-13.07-2.7-18.93-6.38-2.69-1.69-2.33-4.49-2.37-7.08C186,194.62,186.2,169.36,186.08,156.88Z" transform="translate(-42.8 -39.88)"/><path class="cls-3" d="M308.07,153.88a184.57,184.57,0,0,1,35.51,1.94c-1.15,11.84-3,31.63-7,42.88-1.93,5.42-3.75,11.2-11.17,10.34-7.69-3.5-17.52-6.22-18.42-15C305.9,183.21,307.42,164.71,308.07,153.88Z" transform="translate(-42.8 -39.88)"/><path class="cls-3" d="M271.84,153.16c10.41.58,20.84.95,31.24,1.53.09,12.91-.55,32.85-2.78,45.47-2.07,11.68-7.63,16.35-17.2,15.1-7.28-.95-10.62-5.73-11-17.53C271.68,185.18,271.89,165.74,271.84,153.16Z" transform="translate(-42.8 -39.88)"/><path class="cls-3" d="M143.77,180.73c11.78-4.49,24.21-13.09,36.4-16.35-.78,10-1.92,28.67-4.49,38.29-1.9,7.12-7.77,9.75-18.29,9.14-6.78-.39-10.55-4-11.23-11.1C145.7,196,144,185.46,143.77,180.73Z" transform="translate(-42.8 -39.88)"/><path class="cls-4" d="M131,186.08c-2.21,0-4.63.42-6.17-1.82-1.85-2.68-.37-5.32,1-7.34,2.28-3.43,57.49-46.65,84.86-60.87,11.3-5.87,23.09-6,35-2.74,8.19,2.26,16.62,4.08,24.36,7.57s14.36,2.92,22,0c19-7.18,38.35-13.26,57.45-20.14,9.12-3.28,17.53-2.09,26,2.2,16.88,8.54,30,21.78,41.28,37.24C427.17,154.31,435,170,442.21,186.07c3.13,7,10.91,19.45-15.4,5.38l-32.55-13.69-2.62-1.2c-14.86-5-29.79-9.8-45.25-12.35l-3.76-.53a178.31,178.31,0,0,0-34.89-2.14l-4.68,0L271.85,160l-2.7-.34c-14.53-2.39-29.12-3.53-43.81-2.3l-6.09.29C197.76,157.67,152,186.08,131,186.08Z" transform="translate(-42.8 -39.88)"/></svg>